<svg width="96" height="97" viewBox="0 0 96 97" fill="none" xmlns="http://www.w3.org/2000/svg">
<path d="M19.6572 69.0681C19.0922 66.9023 15.7336 58.3569 14.125 54.3549C15.3805 48.0773 23.7533 35.8516 47.2002 37.1699C70.6472 38.4882 82.0018 47.9203 84.7483 52.4716L78.9807 69.7743C77.3328 71.3045 74.0371 74.0117 71.2122 74.6002C68.3872 75.1888 64.3852 75.1888 58.6177 76.7189C52.8501 78.2491 45.6701 77.5429 42.8451 77.3075C40.0202 77.0721 32.8402 75.7773 28.132 74.6002C24.3654 73.6586 20.9127 70.5198 19.6572 69.0681Z" fill="#FCA43C"/>
<path fill-rule="evenodd" clip-rule="evenodd" d="M12.2693 55.1009C12.1242 54.7399 12.0875 54.3443 12.1638 53.9627C13.6427 46.5685 23.0211 33.8073 47.3125 35.1731C71.1819 36.5152 83.266 46.1443 86.4607 51.4384C86.7632 51.9398 86.8308 52.5486 86.6457 53.1041L80.8781 70.4068C80.772 70.7252 80.5875 71.0117 80.3416 71.24C79.4702 72.0492 78.1545 73.1785 76.6634 74.1937C75.2071 75.1852 73.4175 76.1838 71.6201 76.5583C70.5262 76.7862 69.2392 76.937 67.8741 77.097C67.3493 77.1585 66.813 77.2213 66.2717 77.2905C64.2476 77.5489 61.8992 77.9176 59.1305 78.6521C53.2724 80.2064 46.1651 79.5985 43.1247 79.3384C42.9646 79.3248 42.8158 79.312 42.679 79.3006C39.7065 79.0529 32.4119 77.7319 27.6469 76.5406C25.4232 75.9847 23.3821 74.8102 21.7769 73.6432C20.1636 72.4704 18.8733 71.2192 18.1444 70.3765C17.9439 70.1446 17.7993 69.8697 17.7219 69.573C17.4739 68.6223 16.5427 66.0664 15.4143 63.1143C14.3081 60.2203 13.0706 57.0944 12.2693 55.1009ZM14.125 54.355C15.7336 58.357 19.0922 66.9024 19.6572 69.0682C20.9127 70.5199 24.3654 73.6587 28.132 74.6003C32.8402 75.7774 40.0202 77.0721 42.8451 77.3075C42.9736 77.3182 43.1111 77.3299 43.257 77.3423C46.3201 77.6026 53.1124 78.1796 58.6177 76.719C62.3411 75.7312 65.3287 75.3811 67.7388 75.0986C69.0619 74.9436 70.2109 74.8089 71.2122 74.6003C74.0371 74.0118 77.3328 71.3046 78.9807 69.7744L84.7483 52.4717C82.0018 47.9204 70.6472 38.4883 47.2002 37.17C23.7533 35.8517 15.3805 48.0774 14.125 54.355Z" fill="#7A2B11"/>
<path fill-rule="evenodd" clip-rule="evenodd" d="M19.4311 45.3365C22.0874 45.0622 25.0037 44.9902 28.2002 45.1699C51.6472 46.4882 59.0018 55.9203 61.7483 60.4716L60.127 76.3427C63.1599 75.6351 65.6634 75.3418 67.7388 75.0985C69.0619 74.9435 70.211 74.8088 71.2122 74.6002C74.0371 74.0117 77.3329 71.3045 78.9807 69.7743L84.7483 52.4716C82.0018 47.9203 70.6472 38.4882 47.2002 37.1699C33.0115 36.3721 24.3428 40.5342 19.4311 45.3365Z" fill="#C7700A"/>
<path fill-rule="evenodd" clip-rule="evenodd" d="M23.9208 66.5484C24.371 66.2285 24.9953 66.3342 25.3152 66.7844C25.3129 66.7812 25.3134 66.7817 25.3176 66.7854C25.3364 66.8021 25.4295 66.8851 25.6748 66.9951C25.9481 67.1176 26.3255 67.2357 26.7894 67.3282C27.7166 67.5132 28.8909 67.5768 30.0664 67.4335C30.3687 67.3966 30.6714 67.4995 30.8885 67.713C31.8144 68.6231 35.4495 70.5318 41.4613 68.7187C41.756 68.6298 42.0752 68.6816 42.3267 68.8591C42.8552 69.2322 45.0281 70.2794 48.6554 70.6179C49.2053 70.6693 49.6095 71.1566 49.5582 71.7065C49.5069 72.2564 49.0195 72.6606 48.4696 72.6093C45.1004 72.2948 42.7433 71.4003 41.6026 70.7602C35.7156 72.4042 31.6158 70.8716 29.8563 69.4655C28.6227 69.5704 27.41 69.4915 26.3981 69.2896C25.8308 69.1764 25.3019 69.0197 24.8565 68.82C24.4372 68.632 23.9787 68.3564 23.6848 67.9428C23.3649 67.4926 23.4706 66.8683 23.9208 66.5484Z" fill="#FFD19B"/>
<path fill-rule="evenodd" clip-rule="evenodd" d="M29.4084 62.9303C29.9583 62.8797 30.4452 63.2845 30.4958 63.8345C30.8078 67.2254 31.4587 74.3386 31.5593 75.5963C31.6034 76.1469 31.1928 76.6289 30.6422 76.6729C30.0917 76.7169 29.6097 76.3064 29.5657 75.7558C29.4663 74.5136 28.8172 67.4185 28.5042 64.0177C28.4536 63.4678 28.8584 62.9809 29.4084 62.9303Z" fill="#7A2B11"/>
<path fill-rule="evenodd" clip-rule="evenodd" d="M18.6179 58.8535C19.1412 58.677 19.7085 58.9581 19.8851 59.4815C21.0608 62.9675 23.5613 70.5295 23.9762 72.3966C24.096 72.9358 23.7561 73.4699 23.2169 73.5897C22.6778 73.7095 22.1436 73.3696 22.0238 72.8305C21.6387 71.0976 19.1892 63.6763 17.9899 60.1206C17.8134 59.5973 18.0946 59.03 18.6179 58.8535Z" fill="#7A2B11"/>
<path fill-rule="evenodd" clip-rule="evenodd" d="M42.0625 65.176C42.6148 65.176 43.0625 65.6237 43.0625 66.176V77.926C43.0625 78.4783 42.6148 78.926 42.0625 78.926C41.5102 78.926 41.0625 78.4783 41.0625 77.926V66.176C41.0625 65.6237 41.5102 65.176 42.0625 65.176Z" fill="#7A2B11"/>
<path fill-rule="evenodd" clip-rule="evenodd" d="M79.5117 59.5663C80.021 59.7799 80.2608 60.366 80.0472 60.8753C78.9644 63.4573 76.7685 69.4843 76.4336 73.2643C76.3849 73.8144 75.8994 74.2209 75.3492 74.1721C74.7991 74.1234 74.3927 73.6379 74.4414 73.0878C74.8065 68.9678 77.1189 62.6865 78.2028 60.1018C78.4164 59.5925 79.0024 59.3528 79.5117 59.5663Z" fill="#7A2B11"/>
<path fill-rule="evenodd" clip-rule="evenodd" d="M66.8426 63.6883C67.3882 63.7739 67.7611 64.2857 67.6754 64.8313C67.2762 67.3733 66.5286 72.9782 66.6243 75.5135C66.6451 76.0654 66.2146 76.5296 65.6627 76.5505C65.1108 76.5713 64.6465 76.1408 64.6257 75.5889C64.5214 72.8242 65.3071 67.0207 65.6996 64.521C65.7853 63.9754 66.297 63.6026 66.8426 63.6883Z" fill="#7A2B11"/>
<path fill-rule="evenodd" clip-rule="evenodd" d="M55.4741 64.9892C56.026 65.0094 56.4571 65.4732 56.4368 66.0252L55.9993 77.9627C55.9791 78.5146 55.5153 78.9456 54.9634 78.9254C54.4115 78.9051 53.9804 78.4413 54.0007 77.8894L54.4382 65.9519C54.4584 65.4 54.9222 64.969 55.4741 64.9892Z" fill="#7A2B11"/>
<path d="M49.3741 35.675C29.2853 35.675 13 42.419 13 50.738C12.8125 52.9049 13.7625 57.526 19.0625 58.676C19.7292 60.3427 22.8375 63.4635 29.9375 62.6135C31.542 64.1969 36.2132 66.7635 42.0625 64.3635C44.5209 65.801 50.625 67.8135 55.375 64.3635C57.3959 65.7385 62.45 67.426 66.5 63.176C68.7917 64.0094 75.75 64.3635 78.5625 59.051C81.4989 58.9882 85.7483 56.7385 85.7483 50.738C85.7483 42.419 69.463 35.675 49.3741 35.675Z" fill="#7005C5"/>
<path fill-rule="evenodd" clip-rule="evenodd" d="M22.8885 38.2391C29.7678 35.3903 39.133 33.675 49.3741 33.675C59.6153 33.675 68.9805 35.3903 75.8598 38.2391C79.2948 39.6616 82.2059 41.4062 84.289 43.4457C86.3788 45.4918 87.7483 47.957 87.7483 50.738C87.7483 54.2542 86.4827 56.8638 84.6136 58.5903C83.1481 59.9439 81.3853 60.687 79.7548 60.9459C77.9407 63.6276 75.2103 64.8873 72.7249 65.38C70.6538 65.7906 68.5952 65.7057 67.0634 65.3962C64.8268 67.3131 62.3511 67.9473 60.1148 67.8782C58.3088 67.8224 56.6784 67.3123 55.4339 66.7006C52.847 68.1663 50.0641 68.4356 47.6532 68.1857C45.4047 67.9526 43.3771 67.2611 41.9217 66.5525C36.2754 68.4863 31.6094 66.5042 29.2805 64.6889C22.9696 65.1936 19.2332 62.7553 17.7115 60.3898C15.0062 59.5653 13.2562 57.9062 12.2272 56.0634C11.15 54.1341 10.8947 52.0717 11.0004 50.6528C11.0281 47.9067 12.3908 45.4709 14.4593 43.4457C16.5424 41.4062 19.4534 39.6616 22.8885 38.2391ZM13 50.738C12.8125 52.9049 13.7625 57.526 19.0625 58.676C19.7292 60.3427 22.8375 63.4635 29.9375 62.6135C31.542 64.1969 36.2132 66.7635 42.0625 64.3635C44.5209 65.801 50.625 67.8135 55.375 64.3635C57.3959 65.7385 62.45 67.426 66.5 63.176C68.7917 64.0094 75.75 64.3635 78.5625 59.051C81.4989 58.9882 85.7483 56.7385 85.7483 50.738C85.7483 42.419 69.463 35.675 49.3741 35.675C29.2853 35.675 13 42.419 13 50.738Z" fill="#7A2B11"/>
<path d="M23.4947 54.551C23.4947 55.5175 22.585 56.301 21.4629 56.301C20.3408 56.301 19.4311 55.5175 19.4311 54.551C19.4311 53.5845 20.3408 52.801 21.4629 52.801C22.585 52.801 23.4947 53.5845 23.4947 54.551Z" fill="#450597"/>
<path d="M29.1558 57.9985C29.1558 58.965 28.2461 59.7485 27.124 59.7485C26.0018 59.7485 25.0922 58.965 25.0922 57.9985C25.0922 57.032 26.0018 56.2485 27.124 56.2485C28.2461 56.2485 29.1558 57.032 29.1558 57.9985Z" fill="#450597"/>
<path d="M38.5328 50.738C38.5328 51.7045 37.6232 52.488 36.501 52.488C35.3789 52.488 34.4692 51.7045 34.4692 50.738C34.4692 49.7715 35.3789 48.988 36.501 48.988C37.6232 48.988 38.5328 49.7715 38.5328 50.738Z" fill="#450597"/>
<path d="M48 48.9258C48 49.8923 47.0903 50.6758 45.9682 50.6758C44.8461 50.6758 43.9364 49.8923 43.9364 48.9258C43.9364 47.9593 44.8461 47.1758 45.9682 47.1758C47.0903 47.1758 48 47.9593 48 48.9258Z" fill="#450597"/>
<path d="M53.3761 54.238C53.3761 55.2045 52.4664 55.988 51.3443 55.988C50.2222 55.988 49.3125 55.2045 49.3125 54.238C49.3125 53.2715 50.2222 52.488 51.3443 52.488C52.4664 52.488 53.3761 53.2715 53.3761 54.238Z" fill="#450597"/>
<path d="M62.2502 62.301C62.2502 63.2675 61.3406 64.051 60.2184 64.051C59.0963 64.051 58.1866 63.2675 58.1866 62.301C58.1866 61.3345 59.0963 60.551 60.2184 60.551C61.3406 60.551 62.2502 61.3345 62.2502 62.301Z" fill="#450597"/>
<path d="M61.6241 43.1755C61.6241 44.142 60.7145 44.9255 59.5923 44.9255C58.4702 44.9255 57.5605 44.142 57.5605 43.1755C57.5605 42.209 58.4702 41.4255 59.5923 41.4255C60.7145 41.4255 61.6241 42.209 61.6241 43.1755Z" fill="#450597"/>
<path d="M49.4648 38.676C49.4648 39.6425 48.5551 40.426 47.433 40.426C46.3109 40.426 45.4012 39.6425 45.4012 38.676C45.4012 37.7095 46.3109 36.926 47.433 36.926C48.5551 36.926 49.4648 37.7095 49.4648 38.676Z" fill="#450597"/>
<path d="M35.4693 43.301C35.4693 44.2675 34.5596 45.051 33.4375 45.051C32.3154 45.051 31.4057 44.2675 31.4057 43.301C31.4057 42.3345 32.3154 41.551 33.4375 41.551C34.5596 41.551 35.4693 42.3345 35.4693 43.301Z" fill="#450597"/>
<path d="M76.4693 47.3635C76.4693 48.33 75.5596 49.1135 74.4375 49.1135C73.3154 49.1135 72.4057 48.33 72.4057 47.3635C72.4057 46.397 73.3154 45.6135 74.4375 45.6135C75.5596 45.6135 76.4693 46.397 76.4693 47.3635Z" fill="#450597"/>
<path d="M21.625 47.551C21.625 48.5175 20.7153 49.301 19.5932 49.301C18.4711 49.301 17.5614 48.5175 17.5614 47.551C17.5614 46.5845 18.4711 45.801 19.5932 45.801C20.7153 45.801 21.625 46.5845 21.625 47.551Z" fill="#450597"/>
<path d="M31.125 48.5508C31.125 50.1417 29.6277 51.4313 27.7807 51.4313C25.9337 51.4313 24.4365 50.1417 24.4365 48.5508C24.4365 46.96 25.9337 45.6704 27.7807 45.6704C29.6277 45.6704 31.125 46.96 31.125 48.5508Z" fill="#450597"/>
<path d="M37.8135 59.1815C37.8135 60.7723 36.3163 62.0619 34.4693 62.0619C32.6223 62.0619 31.125 60.7723 31.125 59.1815C31.125 57.5906 32.6223 56.301 34.4693 56.301C36.3163 56.301 37.8135 57.5906 37.8135 59.1815Z" fill="#450597"/>
<path d="M46.3741 55.1182C46.3741 56.7091 44.8769 57.9987 43.0299 57.9987C41.1829 57.9987 39.6856 56.7091 39.6856 55.1182C39.6856 53.5274 41.1829 52.2378 43.0299 52.2378C44.8769 52.2378 46.3741 53.5274 46.3741 55.1182Z" fill="#450597"/>
<path d="M44.5021 42.733C44.5021 44.3238 43.0048 45.6134 41.1578 45.6134C39.3108 45.6134 37.8135 44.3238 37.8135 42.733C37.8135 41.1422 39.3108 39.8525 41.1578 39.8525C43.0048 39.8525 44.5021 41.1422 44.5021 42.733Z" fill="#450597"/>
<path d="M62.126 54.3736C62.126 55.9644 60.6288 57.254 58.7818 57.254C56.9348 57.254 55.4375 55.9644 55.4375 54.3736C55.4375 52.7828 56.9348 51.4932 58.7818 51.4932C60.6288 51.4932 62.126 52.7828 62.126 54.3736Z" fill="#450597"/>
<path d="M52.0897 61.7955C52.0897 63.3863 50.5924 64.6759 48.7455 64.6759C46.8985 64.6759 45.4012 63.3863 45.4012 61.7955C45.4012 60.2047 46.8985 58.915 48.7455 58.915C50.5924 58.915 52.0897 60.2047 52.0897 61.7955Z" fill="#450597"/>
<path d="M54.6885 45.6133C54.6885 47.2042 53.1913 48.4938 51.3443 48.4938C49.4973 48.4938 48 47.2042 48 45.6133C48 44.0225 49.4973 42.7329 51.3443 42.7329C53.1913 42.7329 54.6885 44.0225 54.6885 45.6133Z" fill="#450597"/>
<path d="M69.496 45.6133C69.496 47.2042 67.9988 48.4938 66.1518 48.4938C64.3048 48.4938 62.8075 47.2042 62.8075 45.6133C62.8075 44.0225 64.3048 42.7329 66.1518 42.7329C67.9988 42.7329 69.496 44.0225 69.496 45.6133Z" fill="#450597"/>
<path d="M80.6255 54.3736C80.6255 55.9644 79.1283 57.254 77.2813 57.254C75.4343 57.254 73.937 55.9644 73.937 54.3736C73.937 52.7828 75.4343 51.4932 77.2813 51.4932C79.1283 51.4932 80.6255 52.7828 80.6255 54.3736Z" fill="#450597"/>
<path d="M71.3758 58.1182C71.3758 59.7091 69.8785 60.9987 68.0315 60.9987C66.1845 60.9987 64.6873 59.7091 64.6873 58.1182C64.6873 56.5274 66.1845 55.2378 68.0315 55.2378C69.8785 55.2378 71.3758 56.5274 71.3758 58.1182Z" fill="#450597"/>
<path d="M21.625 51.426C21.625 53.4281 19.8621 55.051 17.6875 55.051C15.5129 55.051 13.75 53.4281 13.75 51.426C13.75 49.424 15.5129 47.801 17.6875 47.801C19.8621 47.801 21.625 49.424 21.625 51.426Z" fill="#9826F1"/>
<path d="M28.5 43.176C28.5 45.1781 26.7371 46.801 24.5625 46.801C22.3879 46.801 20.625 45.1781 20.625 43.176C20.625 41.174 22.3879 39.551 24.5625 39.551C26.7371 39.551 28.5 41.174 28.5 43.176Z" fill="#9826F1"/>
<path d="M33.4375 53.7488C33.4375 55.7508 31.6746 57.3738 29.5 57.3738C27.3254 57.3738 25.5625 55.7508 25.5625 53.7488C25.5625 51.7467 27.3254 50.1238 29.5 50.1238C31.6746 50.1238 33.4375 51.7467 33.4375 53.7488Z" fill="#9826F1"/>
<path d="M43.0625 57.9988C43.0625 60.0008 41.2996 61.6238 39.125 61.6238C36.9504 61.6238 35.1875 60.0008 35.1875 57.9988C35.1875 55.9967 36.9504 54.3738 39.125 54.3738C41.2996 54.3738 43.0625 55.9967 43.0625 57.9988Z" fill="#9826F1"/>
<path d="M43.0625 47.113C43.0625 49.1151 41.2996 50.738 39.125 50.738C36.9504 50.738 35.1875 49.1151 35.1875 47.113C35.1875 45.111 36.9504 43.488 39.125 43.488C41.2996 43.488 43.0625 45.111 43.0625 47.113Z" fill="#9826F1"/>
<path d="M40.1875 40.551C40.1875 42.5531 38.4246 44.176 36.25 44.176C34.0754 44.176 32.3125 42.5531 32.3125 40.551C32.3125 38.549 34.0754 36.926 36.25 36.926C38.4246 36.926 40.1875 38.549 40.1875 40.551Z" fill="#9826F1"/>
<path d="M34.4692 38.2431C34.4692 40.0008 32.9215 41.4257 31.0123 41.4257C29.1031 41.4257 27.5554 40.0008 27.5554 38.2431C27.5554 36.4854 29.1031 35.0605 31.0123 35.0605C32.9215 35.0605 34.4692 36.4854 34.4692 38.2431Z" fill="#9826F1"/>
<path d="M23.0501 43.488C23.0501 45.2457 21.5024 46.6705 19.5932 46.6705C17.684 46.6705 16.1363 45.2457 16.1363 43.488C16.1363 41.7303 17.684 40.3054 19.5932 40.3054C21.5024 40.3054 23.0501 41.7303 23.0501 43.488Z" fill="#9826F1"/>
<path d="M48.0717 36.1176C48.0717 37.8753 46.524 39.3002 44.6148 39.3002C42.7056 39.3002 41.1578 37.8753 41.1578 36.1176C41.1578 34.3599 42.7056 32.9351 44.6148 32.9351C46.524 32.9351 48.0717 34.3599 48.0717 36.1176Z" fill="#9826F1"/>
<path d="M58.1454 35.2326C58.1454 36.9903 56.5977 38.4152 54.6885 38.4152C52.7793 38.4152 51.2316 36.9903 51.2316 35.2326C51.2316 33.4749 52.7793 32.05 54.6885 32.05C56.5977 32.05 58.1454 33.4749 58.1454 35.2326Z" fill="#9826F1"/>
<path d="M54.2491 41.551C54.2491 43.5531 52.4863 45.176 50.3116 45.176C48.137 45.176 46.3741 43.5531 46.3741 41.551C46.3741 39.549 48.137 37.926 50.3116 37.926C52.4863 37.926 54.2491 39.549 54.2491 41.551Z" fill="#9826F1"/>
<path d="M58.1866 50.7488C58.1866 52.7508 56.4238 54.3738 54.2491 54.3738C52.0745 54.3738 50.3116 52.7508 50.3116 50.7488C50.3116 48.7467 52.0745 47.1238 54.2491 47.1238C56.4238 47.1238 58.1866 48.7467 58.1866 50.7488Z" fill="#9826F1"/>
<path d="M55.9366 60.9988C55.9366 63.0008 54.1738 64.6238 51.9991 64.6238C49.8245 64.6238 48.0616 63.0008 48.0616 60.9988C48.0616 58.9967 49.8245 57.3738 51.9991 57.3738C54.1738 57.3738 55.9366 58.9967 55.9366 60.9988Z" fill="#9826F1"/>
<path d="M65.5616 58.676C65.5616 60.6781 63.7988 62.301 61.6241 62.301C59.4495 62.301 57.6866 60.6781 57.6866 58.676C57.6866 56.674 59.4495 55.051 61.6241 55.051C63.7988 55.051 65.5616 56.674 65.5616 58.676Z" fill="#9826F1"/>
<path d="M67.0616 50.1238C67.0616 52.1258 65.2988 53.7488 63.1241 53.7488C60.9495 53.7488 59.1866 52.1258 59.1866 50.1238C59.1866 48.1217 60.9495 46.4988 63.1241 46.4988C65.2988 46.4988 67.0616 48.1217 67.0616 50.1238Z" fill="#9826F1"/>
<path d="M75.9366 55.051C75.9366 57.0531 74.1738 58.676 71.9991 58.676C69.8245 58.676 68.0616 57.0531 68.0616 55.051C68.0616 53.049 69.8245 51.426 71.9991 51.426C74.1738 51.426 75.9366 53.049 75.9366 55.051Z" fill="#9826F1"/>
<path d="M82.7483 50.1238C82.7483 52.1258 80.9854 53.7488 78.8108 53.7488C76.6362 53.7488 74.8733 52.1258 74.8733 50.1238C74.8733 48.1217 76.6362 46.4988 78.8108 46.4988C80.9854 46.4988 82.7483 48.1217 82.7483 50.1238Z" fill="#9826F1"/>
<path d="M75.9366 44.176C75.9366 46.1781 74.1738 47.801 71.9991 47.801C69.8245 47.801 68.0616 46.1781 68.0616 44.176C68.0616 42.174 69.8245 40.551 71.9991 40.551C74.1738 40.551 75.9366 42.174 75.9366 44.176Z" fill="#9826F1"/>
<path d="M63.1241 39.3C63.1241 41.3021 61.3613 42.925 59.1866 42.925C57.012 42.925 55.2491 41.3021 55.2491 39.3C55.2491 37.298 57.012 35.675 59.1866 35.675C61.3613 35.675 63.1241 37.298 63.1241 39.3Z" fill="#9826F1"/>
<path d="M73.4366 38.6853C73.4366 40.6873 71.6738 42.3103 69.4991 42.3103C67.3245 42.3103 65.5616 40.6873 65.5616 38.6853C65.5616 36.6833 67.3245 35.0603 69.4991 35.0603C71.6738 35.0603 73.4366 36.6833 73.4366 38.6853Z" fill="#9826F1"/>
<path d="M83.1562 44.7385C83.1562 46.7406 81.3934 48.3635 79.2188 48.3635C77.0441 48.3635 75.2812 46.7406 75.2812 44.7385C75.2812 42.7365 77.0441 41.1135 79.2188 41.1135C81.3934 41.1135 83.1562 42.7365 83.1562 44.7385Z" fill="#9826F1"/>
<path d="M18.9375 49.9885C18.9375 50.7824 18.2384 51.426 17.3761 51.426C16.5137 51.426 15.8146 50.7824 15.8146 49.9885C15.8146 49.1946 16.5137 48.551 17.3761 48.551C18.2384 48.551 18.9375 49.1946 18.9375 49.9885Z" fill="#FFA1F0"/>
<path d="M27.1239 43.488C27.1239 44.2819 26.4249 44.9255 25.5625 44.9255C24.7002 44.9255 24.0011 44.2819 24.0011 43.488C24.0011 42.6941 24.7002 42.0505 25.5625 42.0505C26.4249 42.0505 27.1239 42.6941 27.1239 43.488Z" fill="#FFA1F0"/>
<path d="M39.8114 45.6135C39.8114 46.4074 39.1124 47.051 38.25 47.051C37.3877 47.051 36.6886 46.4074 36.6886 45.6135C36.6886 44.8196 37.3877 44.176 38.25 44.176C39.1124 44.176 39.8114 44.8196 39.8114 45.6135Z" fill="#FFA1F0"/>
<path d="M50.9981 39.8528C50.9981 40.6467 50.299 41.2903 49.4367 41.2903C48.5743 41.2903 47.8752 40.6467 47.8752 39.8528C47.8752 39.0589 48.5743 38.4153 49.4367 38.4153C50.299 38.4153 50.9981 39.0589 50.9981 39.8528Z" fill="#FFA1F0"/>
<path d="M36.7489 38.9885C36.7489 39.7824 36.0499 40.426 35.1875 40.426C34.3252 40.426 33.6261 39.7824 33.6261 38.9885C33.6261 38.1946 34.3252 37.551 35.1875 37.551C36.0499 37.551 36.7489 38.1946 36.7489 38.9885Z" fill="#FFA1F0"/>
<path d="M54.6885 49.3113C54.6885 50.1052 53.9894 50.7488 53.1271 50.7488C52.2647 50.7488 51.5657 50.1052 51.5657 49.3113C51.5657 48.5174 52.2647 47.8738 53.1271 47.8738C53.9894 47.8738 54.6885 48.5174 54.6885 49.3113Z" fill="#FFA1F0"/>
<path d="M39.6239 56.707C39.6239 57.5009 38.9248 58.1445 38.0625 58.1445C37.2001 58.1445 36.501 57.5009 36.501 56.707C36.501 55.9131 37.2001 55.2695 38.0625 55.2695C38.9248 55.2695 39.6239 55.9131 39.6239 56.707Z" fill="#FFA1F0"/>
<path d="M52.4353 59.7488C52.4353 60.5427 51.7363 61.1863 50.8739 61.1863C50.0116 61.1863 49.3125 60.5427 49.3125 59.7488C49.3125 58.9549 50.0116 58.3113 50.8739 58.3113C51.7363 58.3113 52.4353 58.9549 52.4353 59.7488Z" fill="#FFA1F0"/>
<path d="M62.126 57.6863C62.126 58.4802 61.4269 59.1238 60.5646 59.1238C59.7022 59.1238 59.0032 58.4802 59.0032 57.6863C59.0032 56.8924 59.7022 56.2488 60.5646 56.2488C61.4269 56.2488 62.126 56.8924 62.126 57.6863Z" fill="#FFA1F0"/>
</svg>
