<svg height="512" viewBox="0 0 128 128" width="512" xmlns="http://www.w3.org/2000/svg"><g><path d="m99.66 31.48a7.925 7.925 0 0 1 -4.5 7.53l-4.04 1.92h-15.03a12.069 12.069 0 0 0 -9.68-11.85l19.6-9.32a7.943 7.943 0 0 1 10.55 3.75l2.35 4.96a7.721 7.721 0 0 1 .75 3.01z" fill="#e03f3f"/><path d="m99.66 31.48a7.925 7.925 0 0 1 -4.5 7.53l-4.04 1.92h-15.03a12.233 12.233 0 0 0 -.48-3.39l15.37-7.32a7.93 7.93 0 0 1 8.68 1.26z" fill="#bf1b1b"/><path d="m76.09 40.93h-24.18a12.069 12.069 0 0 1 9.68-11.85 12.1 12.1 0 0 1 14.02 8.46 12.233 12.233 0 0 1 .48 3.39z" fill="#cc3232"/><path d="m61.59 29.08a12.069 12.069 0 0 0 -9.68 11.85h-15.03l-4.04-1.92a7.925 7.925 0 0 1 -4.5-7.53 7.721 7.721 0 0 1 .75-3.01l2.35-4.96a7.943 7.943 0 0 1 10.55-3.75z" fill="#e03f3f"/><path d="m52.39 37.54a12.233 12.233 0 0 0 -.48 3.39h-15.03l-4.04-1.92a7.925 7.925 0 0 1 -4.5-7.53 7.93 7.93 0 0 1 8.68-1.26z" fill="#bf1b1b"/><path d="m109 45.94v7.62a5.006 5.006 0 0 1 -5.01 5.01h-79.98a5.006 5.006 0 0 1 -5.01-5.01v-7.62a4.99 4.99 0 0 1 4.46-4.97 3.313 3.313 0 0 1 .55-.04h35.52l.04.02.12.06a.3.3 0 0 1 -.04-.08h8.7a.3.3 0 0 1 -.04.08l.12-.06.04-.02h35.52a3.313 3.313 0 0 1 .55.04 4.99 4.99 0 0 1 4.46 4.97z" fill="#ffb703"/><path d="m49.381 40.93h29.237v17.64h-29.237z" fill="#e03f3f"/><path d="m104.09 58.57v45.213a5.119 5.119 0 0 1 -5.01 5.217h-70.16a5.113 5.113 0 0 1 -5.01-5.217v-45.213z" fill="#f7a603"/><path d="m51.146 58.57h25.708v50.43h-25.708z" fill="#cc3232"/><path d="m51.146 58.57h25.708v8.972h-25.708z" fill="#bf1b1b"/></g></svg>