<svg height="512" viewBox="0 0 128 128" width="512" xmlns="http://www.w3.org/2000/svg"><g><path d="m64 58.16a1.749 1.749 0 0 1 -1.75-1.75v-4.844a3.611 3.611 0 0 0 -3.607-3.607h-6.732a6.48 6.48 0 0 1 0-12.959h22.419a6.648 6.648 0 0 0 6.64-6.64v-9.36a1.75 1.75 0 0 1 3.5 0v9.36a10.152 10.152 0 0 1 -10.14 10.14h-22.419a2.98 2.98 0 0 0 0 5.959h6.732a7.116 7.116 0 0 1 7.107 7.107v4.844a1.749 1.749 0 0 1 -1.75 1.75z" fill="#ffb703"/><path d="m87.046 65.592h-45.566c-11.9 0-22.043 9.256-22.466 21.153a21.955 21.955 0 0 0 40.906 11.855 4.726 4.726 0 0 1 4.08-2.344 4.7 4.7 0 0 1 4.067 2.325 21.955 21.955 0 1 0 18.979-32.989z" fill="#8ecae6"/><path d="m49.374 83.888h-4.762v-4.762a2.376 2.376 0 0 0 -2.376-2.376h-2.564a2.375 2.375 0 0 0 -2.372 2.376v4.762h-4.766a2.376 2.376 0 0 0 -2.376 2.376v2.563a2.376 2.376 0 0 0 2.376 2.373h4.766v4.763a2.375 2.375 0 0 0 2.375 2.376h2.564a2.376 2.376 0 0 0 2.376-2.376v-4.763h4.762a2.376 2.376 0 0 0 2.376-2.376v-2.56a2.376 2.376 0 0 0 -2.379-2.376z" fill="#023047"/><path d="m96.069 90.905a3.359 3.359 0 1 1 3.358-3.359 3.359 3.359 0 0 1 -3.358 3.359z" fill="#fcf8de"/><path d="m78.023 90.905a3.359 3.359 0 1 1 3.359-3.359 3.359 3.359 0 0 1 -3.359 3.359z" fill="#e03f3f"/><path d="m90.405 78.523a3.359 3.359 0 1 1 -3.359-3.359 3.359 3.359 0 0 1 3.359 3.359z" fill="#fcf8de"/><path d="m90.405 96.568a3.359 3.359 0 1 1 -3.359-3.359 3.359 3.359 0 0 1 3.359 3.359z" fill="#e03f3f"/><path d="m56.444 56.41h15.111v9.181h-15.111z" fill="#219ebc"/></g></svg>