<svg height="512" viewBox="0 0 128 128" width="512" xmlns="http://www.w3.org/2000/svg"><g><path d="m88.66 27.39v33.45a21.82 21.82 0 0 1 -19.34 21.68 22.481 22.481 0 0 1 -2.48.14h-5.68a22.481 22.481 0 0 1 -2.48-.14 21.8 21.8 0 0 1 -19.34-21.68v-33.45z" fill="#ffb703"/><path d="m96.32 34.27h-7.66v6h7.66a3.715 3.715 0 0 1 3.71 3.71v9.27a8.638 8.638 0 0 1 -8.63 8.63h-2.95a21.641 21.641 0 0 1 -1.75 6h4.7a14.643 14.643 0 0 0 14.63-14.63v-9.27a9.726 9.726 0 0 0 -9.71-9.71zm-59.72 27.61a8.638 8.638 0 0 1 -8.63-8.63v-9.27a3.715 3.715 0 0 1 3.71-3.71h7.66v-6h-7.66a9.726 9.726 0 0 0 -9.71 9.71v9.27a14.643 14.643 0 0 0 14.63 14.63h4.7a21.641 21.641 0 0 1 -1.75-6z" fill="#fb8500"/><path d="m89.652 27.39h-51.3a4.2 4.2 0 0 1 -4.199-4.19 4.2 4.2 0 0 1 4.195-4.2h51.3a4.2 4.2 0 0 1 4.195 4.2 4.2 4.2 0 0 1 -4.191 4.19z" fill="#fb8500"/><path d="m79.329 109h-30.658a4.2 4.2 0 0 1 -4.195-4.195 4.2 4.2 0 0 1 4.2-4.2h30.653a4.2 4.2 0 0 1 4.2 4.2 4.2 4.2 0 0 1 -4.2 4.195z" fill="#ffb703"/><path d="m69.32 82.52v18.09h-10.64v-18.09a22.481 22.481 0 0 0 2.48.14h5.68a22.481 22.481 0 0 0 2.48-.14z" fill="#fb8500"/></g></svg>