<svg height="512" viewBox="0 0 128 128" width="512" xmlns="http://www.w3.org/2000/svg"><g><path d="m103.508 25.476 5.492 24.724-9.95 2.21 1.375 6.192a6.342 6.342 0 0 1 -12.382 2.75l-1.376-6.191-9.95 2.211-2.211-9.95 6.194-1.378a6.342 6.342 0 0 0 -2.751-12.382l-6.192 1.375-2.21-9.95 24.719-5.487a7.747 7.747 0 0 1 9.242 5.876z" fill="#8ecae6"/><path d="m85.14 75.93v25.324a7.747 7.747 0 0 1 -7.746 7.746h-25.324v-10.193h-6.342a6.342 6.342 0 0 1 0-12.684h6.342v-10.193h10.193v6.342a6.342 6.342 0 0 0 12.684 0v-6.342z" fill="#fb8500"/><path d="m64.747 59.4a6.347 6.347 0 0 1 -6.335 6.342h-6.342v10.188h-10.193v-6.342a6.342 6.342 0 0 0 -12.684 0v6.342h-10.193v-25.324a7.747 7.747 0 0 1 7.746-7.746h25.324v10.193h6.342a6.342 6.342 0 0 1 6.335 6.347z" fill="#ffb703"/><path d="m41.252 87.982a6.34 6.34 0 0 0 4.476 10.825h6.342v10.193h-25.324a7.747 7.747 0 0 1 -7.746-7.746v-25.324h10.193v-6.342a6.342 6.342 0 0 1 12.684 0v6.342h10.193v10.193h-6.342a6.313 6.313 0 0 0 -4.476 1.859z" fill="#e03f3f"/></g></svg>