<?xml version="1.0" encoding="utf-8"?>
<!-- Generator: Adobe Illustrator 24.3.0, SVG Export Plug-In . SVG Version: 6.00 Build 0)  -->
<svg version="1.1" id="Layer_1" xmlns="http://www.w3.org/2000/svg" xmlns:xlink="http://www.w3.org/1999/xlink" x="0px" y="0px"
	 viewBox="0 0 80 80" style="enable-background:new 0 0 80 80;" xml:space="preserve">
<style type="text/css">
	.st0{fill:#FF507D;}
	.st1{fill:#D23C69;}
	.st2{fill:#FFFFFF;}
</style>
<circle class="st0" cx="40" cy="40" r="38.7"/>
<path class="st1" d="M48.6,70.1c-21.4,0-38.7-17.3-38.7-38.7c0-8.5,2.7-16.3,7.4-22.7c-9.7,7-16,18.4-16,31.3
	c0,21.4,17.3,38.7,38.7,38.7c12.9,0,24.3-6.3,31.3-16C64.9,67.3,57.1,70.1,48.6,70.1z"/>
<g>
	<circle class="st2" cx="40" cy="64.3" r="2.9"/>
	<path class="st2" d="M52.9,34.3c0-7.1-5.8-12.9-12.9-12.9c-7.1,0-12.9,5.8-12.9,12.9c0,1.6-1.3,2.9-2.9,2.9s-2.9-1.3-2.9-2.9
		c0-10.3,8.3-18.6,18.6-18.6S58.6,24,58.6,34.3c0,9.3-6.8,17-15.7,18.4v0.2c0,1.6-1.3,2.9-2.9,2.9s-2.9-1.3-2.9-2.9V50
		c0-1.6,1.3-2.9,2.9-2.9C47.1,47.2,52.9,41.4,52.9,34.3z"/>
</g>
<path d="M68.3,11.7C60.7,4.2,50.7,0,40,0S19.3,4.2,11.7,11.7C4.2,19.3,0,29.3,0,40s4.2,20.7,11.7,28.3C19.3,75.8,29.3,80,40,80
	s20.7-4.2,28.3-11.7C75.8,60.7,80,50.7,80,40S75.8,19.3,68.3,11.7z M40,77.3C19.4,77.3,2.7,60.6,2.7,40S19.4,2.7,40,2.7
	S77.3,19.4,77.3,40S60.6,77.3,40,77.3z"/>
<path d="M40,14.3c-11,0-20,9-20,20c0,2.3,1.9,4.2,4.2,4.2s4.2-1.9,4.2-4.2c0-6.4,5.2-11.5,11.5-11.5c2.1,0,4.2,0.6,6.1,1.7
	c0.6,0.4,1.5,0.2,1.8-0.4c0.4-0.6,0.2-1.5-0.4-1.8C45.2,20.8,42.7,20,40,20c-7.8,0-14.2,6.4-14.2,14.2c0,0.8-0.7,1.5-1.5,1.5
	s-1.5-0.7-1.5-1.5C22.7,24.8,30.5,17,40,17s17.3,7.7,17.3,17.3c0,4.1-1.5,8.1-4.2,11.3c-2.7,3.1-6.4,5.2-10.4,5.8
	c-0.7,0.1-1.1,0.7-1.1,1.3v0.2c0,0.8-0.7,1.5-1.5,1.5c-0.8,0-1.5-0.7-1.5-1.5V50c0-0.8,0.7-1.5,1.5-1.5c7.8,0,14.2-6.4,14.2-14.2
	c0-2.8-0.8-5.5-2.4-7.9c-0.4-0.6-1.2-0.8-1.9-0.4c-0.6,0.4-0.8,1.2-0.4,1.9c1.3,1.9,1.9,4.1,1.9,6.4c0,6.4-5.2,11.5-11.5,11.5
	c-2.3,0-4.2,1.9-4.2,4.2v2.9c0,2.3,1.9,4.2,4.2,4.2c2,0,3.7-1.4,4.1-3.3c4.2-0.9,8.1-3.2,11-6.5c3.1-3.6,4.9-8.3,4.9-13
	C60,23.3,51,14.3,40,14.3z"/>
<path d="M40,60.1c-2.3,0-4.2,1.9-4.2,4.2c0,2.3,1.9,4.2,4.2,4.2s4.2-1.9,4.2-4.2S42.3,60.1,40,60.1z M40,65.9
	c-0.8,0-1.5-0.7-1.5-1.5c0-0.8,0.7-1.5,1.5-1.5s1.5,0.7,1.5,1.5C41.5,65.2,40.8,65.9,40,65.9z"/>
</svg>
